<?xml version="1.0" encoding="UTF-8"?>
<svg width="1200pt" height="1200pt" version="1.1" viewBox="0 0 1200 1200" xmlns="http://www.w3.org/2000/svg">
 <path d="m452.8 734.4c-8.8008 5.6016-14.398 0.80078-11.199-9.6016l45.602-165.6-128.8-100.8c-8-5.6016-6.3984-12.801 4-14.398l165.6-17.602 64-156.8c4-9.6016 12-9.6016 16 0l64 156.8 165.6 17.602c10.398 1.6016 12 8.8008 4 14.398l-128.8 100.8 37.602 166.4c1.6016 9.6016-4 14.398-12.801 8.8008l-137.6-92zm507.2-614.4h-720c-40 0-40 0-40 40v972c0 20 12 23.199 27.199 14.398l372.8-214.4 370.4 212c13.602 8 29.602 8 29.602-12v-972c0-40 0-40-40-40z" fill="#fff"/>
</svg>
