<?xml version="1.0" encoding="UTF-8"?>
<svg width="700pt" height="700pt" version="1.1" viewBox="0 0 700 700" xmlns="http://www.w3.org/2000/svg">
 <path d="m612.53 261.97c-3.8633-40.543-17.75-82.152-39.312-117.15-22.176-36.961-54.879-68.602-94.191-91.336-4.4805-2.9102-9.0703-5.0977-13.551-7.2227l-1.9609-0.95312c-1.625-0.78516-3.2461-1.5703-4.9258-2.3516-3.4141-1.6797-6.7773-3.3047-10.695-4.8164-2.8555-1.0078-5.6016-2.0703-8.3984-3.1367-7.5625-2.8555-15.348-5.7695-23.078-7.4492-23.965-7.1094-48.492-8.7891-67.477-9.4062-45.641 0.11328-91.395 11.816-128.75 32.926l-5.4883 3.25c-7.6719 4.5352-15.625 9.1836-22.457 14.727-1.3984 1.1211-2.9102 2.1289-4.3125 3.1914-2.9648 2.1875-5.8789 4.3125-8.7891 6.8906l-13.609 12.32c-1.3438 1.2305-2.8008 2.5195-4.3125 4.1445l-16.184 17.805-10.023 13.441c-2.8555 3.8086-5.8789 7.8398-8.1211 11.93-21.785 34.664-35.336 73.414-39.199 112-3.5273 35.281 0.33594 71.625 11.312 105.34l5.9375 16.91c0.61719 1.5664 1.1758 2.8008 1.7344 3.9766l0.89453 1.8477c1.1758 2.4062 2.2383 4.7031 3.3594 7.1133 2.0195 4.4805 4.0352 8.8477 6.5 13.383l11.145 18.594c2.5195 3.7539 5.207 7.3359 7.8398 10.809 1.3438 1.8477 2.7422 3.6367 4.3086 5.8203 16.184 19.992 33.211 36.457 49.113 47.434 1.2891 0.89453 2.4648 1.8477 3.6953 2.7422 2.4648 1.8516 4.9297 3.7539 7.3945 5.1523l18.984 11.367 20.887 10.027c4.0898 1.9023 9.0156 0.28125 11.09-3.8086 2.0703-4.1445 0.44531-9.0742-3.5859-11.145l-19.824-10.359-17.809-11.648c-1.9023-1.2891-3.75-2.8008-5.6562-4.3125-1.2305-1.1211-2.5742-2.0703-3.9766-3.2461-14.168-10.586-29.117-26.211-43.117-44.914-1.3477-1.9023-2.6328-3.8086-3.9219-5.6562-2.2969-3.3594-4.5938-6.6641-6.5508-9.8555l-9.7461-17.641c-1.9023-3.9219-3.6406-8.0625-5.4336-12.266-0.94922-2.4609-2.0117-4.9258-3.0234-7.1641l-0.78125-1.9609c-0.39453-0.89844-0.83984-1.9062-1.0078-2.4102l-4.9844-16.125c-8.625-30.465-10.922-63.113-6.6094-94.586 4.7031-33.879 17.977-67.648 38.305-97.551 19.266-29.008 48.719-54.77 82.938-72.465 31.246-16.129 66.078-24.305 103.6-24.305 2.4648 0 4.9297 0 6.9453 0.054688 17.137 1.2891 37.129 3.4727 56.672 10.137 5.8789 1.5117 11.703 3.9219 17.809 6.4961 2.9062 1.2344 5.7617 2.4102 8.1719 3.3594 2.5742 1.1797 5.207 2.5234 7.7266 3.8672 1.625 0.89453 3.3047 1.7344 4.7031 2.5195l1.9609 0.95312c3.5273 1.8477 6.7773 3.5273 9.9688 5.8242l11.93 7.8398c2.2969 1.5664 4.4805 3.3594 6.6641 5.0977 1.4531 1.1719 2.7422 2.3477 4.3672 3.582 5.2656 3.8086 9.8555 8.3438 14.785 13.215 1.7344 1.7344 3.5273 3.5273 5.6016 5.375 1.7344 1.5664 3.3047 3.5859 5.0391 5.7109 1.1758 1.3984 2.2969 2.8008 3.1914 3.8086 1.1719 1.4023 2.2383 2.7461 3.4688 4.1445 1.8477 2.0742 3.4727 4.0312 4.8164 5.9922 1.7344 2.6875 3.5859 5.3203 5.4883 7.9531 3.3594 4.8164 6.4961 9.4062 8.9062 14.445 16.855 29.902 26.375 62.105 28.336 95.762 1.6211 29.008-3.1367 59.191-13.891 87.305-9.1836 23.91-22.289 46.031-38.191 63.953-2.1836 2.5742-4.4805 4.9258-6.7773 7.2227-1.5117 1.457-2.9102 2.9688-4.1406 4.2539-0.78516 0.72656-1.5117 1.457-2.1836 2.2383-0.95312 1.0664-1.9609 2.0742-2.8594 2.8594l-5.7656 4.8164c-1.5703 1.2305-2.9688 2.4648-4.3711 3.6406-2.0703 1.9023-4.1992 3.6406-6.0469 4.9844l-11.031 7.5586c-4.0312 3.0234-8.0078 5.0977-11.703 7.0547-1.9609 1.1211-3.9219 2.0703-5.2656 2.9688-1.1758 0.55859-2.1836 1.1758-3.1914 1.7344-1.1758 0.67578-2.2383 1.3477-3.8086 1.9609l-22.512 9.5195c-16.633 7.8984-23.969 27.777-16.07 44.523 5.4297 11.703 17.359 19.316 30.293 19.316 4.9297 0 9.7422-1.0625 14.223-3.1914l20.887-9.8008c1.9609-0.89453 4.4805-2.2969 7-3.8086l3.4766-2.0703c1.7344-1.0625 3.5859-2.1289 5.6016-3.3047 5.8242-3.3594 12.488-7.2227 18.367-11.93l12.879-9.6875c3.0781-2.4062 5.9922-5.0977 8.9609-7.8398 1.3984-1.2891 2.8555-2.6328 4.4805-4.0312l7.0547-6.3242c1.5117-1.5117 3.0781-3.3047 4.5938-4.9844l2.4062-2.5742c1.3984-1.5703 2.8555-3.1406 4.3672-4.7617 3.082-3.3047 6.2188-6.7773 9.0742-10.586 19.488-23.91 35.336-52.809 45.922-83.832 12.262-36.008 16.852-74.48 13.492-111.21z"/>
</svg>
