<?xml version="1.0" encoding="UTF-8"?>
<svg width="1200pt" height="1200pt" version="1.1" viewBox="0 0 1200 1200" xmlns="http://www.w3.org/2000/svg">
 <g fill="#fff">
  <path d="m602.34 1111.2h-439.45c-41.953 0-69.375-26.25-70.078-67.969-0.46875-29.766-0.70312-59.297 0.46875-89.062 1.4062-35.156 18.516-62.109 48.984-78.75 100.08-54.609 200.62-108.05 300.7-162.42 7.2656-3.9844 11.719-0.23438 17.109 2.5781 85.547 44.766 172.73 48.516 261.8 11.25 2.5781-0.9375 5.3906-1.6406 7.5-3.5156 18.516-15.703 35.156-9.375 54.375 1.1719 89.766 49.453 180.23 97.969 270.7 146.25 39.141 20.859 58.359 52.266 57.656 96.562-0.46875 25.078 0 49.922 0 75-0.23438 41.484-27.891 68.906-69.141 68.906h-440.62z"/>
  <path d="m595.08 691.88c-82.5-2.8125-150.94-43.594-201.33-116.02-82.5-118.83-72.656-287.58 21.797-395.86 102.66-117.42 272.81-116.72 374.53 1.4062 108.05 125.62 101.25 323.91-15.703 437.81-47.812 46.641-105 71.719-179.3 72.656z"/>
 </g>
</svg>
